<svg id="Layer_1" data-name="Layer 1" xmlns="http://www.w3.org/2000/svg" viewBox="0 0 111.87 122.88"><defs><style>.cls-1{fill-rule:evenodd;}</style></defs><title>music-file</title><path class="cls-1" d="M56.75,113.57V75.08a9.35,9.35,0,0,1,9.31-9.32h36.5a9.35,9.35,0,0,1,9.31,9.32v38.49a9.34,9.34,0,0,1-9.31,9.31H66.06a9.34,9.34,0,0,1-9.31-9.31Zm2.74-102.1L79.08,29.82H59.49V11.47ZM20.72,69.38a2.12,2.12,0,0,0-2,2.21,2.08,2.08,0,0,0,2,2.21H45.3V69.38Zm0,15.83a2.12,2.12,0,0,0-2,2.21,2.08,2.08,0,0,0,2,2.21H45.3V85.21Zm0-47.5a2.12,2.12,0,0,0-2,2.21,2.09,2.09,0,0,0,2,2.21H43.45a2.22,2.22,0,0,0,0-4.42Zm0-15.83a2.12,2.12,0,0,0-2,2.21,2.08,2.08,0,0,0,2,2.21h12.5a2.12,2.12,0,0,0,2-2.21,2.1,2.1,0,0,0-2-2.21Zm0,31.67a2.12,2.12,0,0,0-2,2.21,2.09,2.09,0,0,0,2,2.21H59.16a2.13,2.13,0,0,0,2-2.21,2.09,2.09,0,0,0-2-2.21ZM90,32.45a3.26,3.26,0,0,0-2.37-3.14L58.74,1.2A3.21,3.21,0,0,0,56.23,0H5.87A5.86,5.86,0,0,0,0,5.86V106.25a5.84,5.84,0,0,0,1.72,4.15,5.91,5.91,0,0,0,4.15,1.71H45.39v-6.55H6.55v-99H52.94V33.08a3.29,3.29,0,0,0,3.29,3.29h27.2V57.82H90V32.45Zm7.24,45.67v22.82h0a3.72,3.72,0,0,1-.15,1,4.38,4.38,0,0,1-.39.92,6.34,6.34,0,0,1-4.34,2.87,6.6,6.6,0,0,1-1.06.09,4.76,4.76,0,0,1-2.66-.76,3.38,3.38,0,0,1-1.49-2.22h0a3.77,3.77,0,0,1,0-.58v0h0a4.17,4.17,0,0,1,.15-1,4.62,4.62,0,0,1,.39-.91A6.32,6.32,0,0,1,92,97.44h0l.27,0h.06l.26,0H93V87L81.36,90.3v14.58h0a4.35,4.35,0,0,1-.63,2.19,7.31,7.31,0,0,1-5,3.34,7.59,7.59,0,0,1-1.23.11,5.46,5.46,0,0,1-3.07-.87c-4.2-2.82-.15-8,3.94-8.74h.12a3.75,3.75,0,0,1,.47-.05,3.59,3.59,0,0,1,.47,0h0c.25,0,.49,0,.72,0V82.47l20.1-4.35Z" fill="#FFF"/></svg>