<svg id="b5b57efb-7e56-4b55-8cdd-dc10271fc460" data-name="Camada 1" xmlns="http://www.w3.org/2000/svg" viewBox="0 0 75.06 65.62"><polyline points="29.45 64.34 37.34 64.34 45.57 64.34" style="fill:none;stroke:#4f5ca6;stroke-miterlimit:10;stroke-width:2.5446317463925px"/><line x1="37.51" y1="50.3" x2="37.51" y2="64.35" style="fill:none;stroke:#4f5ca6;stroke-miterlimit:10;stroke-width:2.5446317463925px"/><path d="M313.84,422.07a15.93,15.93,0,0,1-31.85,0" transform="translate(-260.47 -387.69)" style="fill:none;stroke:#4f5ca6;stroke-miterlimit:10;stroke-width:2.5446317463925px"/><path d="M318,394a17.8,17.8,0,0,1,0,21.44" transform="translate(-260.47 -387.69)" style="fill:none;stroke:#c54f70;stroke-linecap:round;stroke-linejoin:round;stroke-width:2.54513785960019px"/><path d="M329.62,389a29,29,0,0,1,.13,31.29" transform="translate(-260.47 -387.69)" style="fill:none;stroke:#c54f70;stroke-linecap:round;stroke-linejoin:round;stroke-width:2.54513785960019px"/><rect x="27.63" y="4.01" width="20.02" height="41.35" rx="7.87" style="fill:#fff;stroke:#4f5ca6;stroke-miterlimit:10;stroke-width:2.5446317463925px"/><line x1="29.31" y1="18.09" x2="34.88" y2="18.09" style="fill:none;stroke:#c54f70;stroke-linecap:round;stroke-linejoin:round;stroke-width:2.54513785960019px"/><path d="M278.17,415.44a17.84,17.84,0,0,1,0-21.44" transform="translate(-260.47 -387.69)" style="fill:none;stroke:#c54f70;stroke-linecap:round;stroke-linejoin:round;stroke-width:2.54513785960019px"/><path d="M266.38,420.25a29,29,0,0,1-.13-31.29" transform="translate(-260.47 -387.69)" style="fill:none;stroke:#c54f70;stroke-linecap:round;stroke-linejoin:round;stroke-width:2.54513785960019px"/><line x1="29.69" y1="30.32" x2="34.88" y2="30.32" style="fill:none;stroke:#c54f70;stroke-linecap:round;stroke-linejoin:round;stroke-width:2.54513785960019px"/><line x1="29.31" y1="24.21" x2="34.88" y2="24.21" style="fill:none;stroke:#c54f70;stroke-linecap:round;stroke-linejoin:round;stroke-width:2.54513785960019px"/></svg>