<svg xmlns="http://www.w3.org/2000/svg" viewBox="0 0 118.28 121.26"><g id="ba165e4f-d25e-45aa-b3f2-b55ab7f0e98e" data-name="Camada 2"><g id="f16fa775-2c3c-4c14-bb5d-5691c6c9710d" data-name="Camada 1"><circle cx="19.32" cy="114.69" r="5.41" style="fill:#3aae64"/><path d="M53.16,80.64a12.81,12.81,0,0,1-19.3-11l-.2-28.39-.2-28.38A12.81,12.81,0,0,1,52.6,1.69l24.68,14,24.68,14a12.82,12.82,0,0,1,.16,22.19L77.64,66.28Z" style="fill:#0086ca"/><path d="M68.49,49.29a12.81,12.81,0,0,1,.15,22.19L44.15,85.83,19.67,100.19a12.81,12.81,0,0,1-19.29-11L.19,60.84,0,32.46A12.81,12.81,0,0,1,19.14,21.23l24.68,14Z" style="fill:#3aae64"/><path d="M102.47,68.58a12.81,12.81,0,0,1,.14,22.19L78.13,105.13,53.64,119.48a12.81,12.81,0,0,1-19.29-11l-.19-28.38L34,51.75A12.81,12.81,0,0,1,53.12,40.53l24.67,14Z" style="fill:#e83a69"/><circle cx="112.87" cy="61.12" r="5.41" style="fill:#e83a69"/><circle cx="19.32" cy="7.67" r="5.41" style="fill:#0086ca"/><polygon points="33.63 29.47 87.92 60.25 34.21 91.7 33.63 29.47" style="fill:#35295e"/></g></g></svg>