<svg id="f962f501-9030-417d-acab-4c4331d29bc0" data-name="Camada 1" xmlns="http://www.w3.org/2000/svg" viewBox="0 0 79.38 61.69"><path d="M259.58,392.46a1.53,1.53,0,0,1,1.54-1.53h30.25a1.51,1.51,0,0,1,1,.4l5.6,5.08V448l-5.59-5.58a1.53,1.53,0,0,0-1.08-.45H261.12a1.54,1.54,0,0,1-1.54-1.54Z" transform="translate(-258.31 -389.65)" style="fill:#fff;stroke:#fff;stroke-miterlimit:10;stroke-width:2.5446317463925px"/><path d="M335.87,442.52v5.21a2.48,2.48,0,0,1-2.47,2.47H262.6a2.48,2.48,0,0,1-2.47-2.47v-5.21" transform="translate(-258.31 -389.65)" style="fill:none;stroke:#fff;stroke-linecap:round;stroke-linejoin:round;stroke-width:2.29356096441554px"/><path d="M336.42,440.43a1.54,1.54,0,0,1-1.54,1.54H304.67a1.53,1.53,0,0,0-1.08.45L298,448V396.41l5.6-5.08a1.51,1.51,0,0,1,1-.4h30.25a1.53,1.53,0,0,1,1.54,1.53v47.73" transform="translate(-258.31 -389.65)" style="fill:#fff;stroke:#fff;stroke-miterlimit:10;stroke-width:2.5446317463925px"/><path d="M327.09,411.78" transform="translate(-258.31 -389.65)" style="fill:#feca0d;stroke:#c54f70;stroke-linecap:round;stroke-linejoin:round;stroke-width:2.54513785960019px"/><path d="M305.13,411.78" transform="translate(-258.31 -389.65)" style="fill:#fff;stroke:#4f5ca6;stroke-linecap:round;stroke-linejoin:round;stroke-width:2.5446317463925px"/><path d="M289.77,431.54" transform="translate(-258.31 -389.65)" style="fill:#fff;stroke:#4f5ca6;stroke-linecap:round;stroke-linejoin:round;stroke-width:2.5446317463925px"/><path d="M267.82,431.54" transform="translate(-258.31 -389.65)" style="fill:#fff;stroke:#4f5ca6;stroke-linecap:round;stroke-linejoin:round;stroke-width:2.5446317463925px"/><line x1="9.5" y1="22.13" x2="31.46" y2="22.13" style="fill:#fff;stroke:#4f5ca6;stroke-linecap:round;stroke-linejoin:round;stroke-width:2.5446317463925px"/><line x1="9.5" y1="32.01" x2="31.46" y2="32.01" style="fill:#fff;stroke:#4f5ca6;stroke-linecap:round;stroke-linejoin:round;stroke-width:2.5446317463925px"/><line x1="46.82" y1="22.13" x2="68.78" y2="22.13" style="fill:#fff;stroke:#4f5ca6;stroke-linecap:round;stroke-linejoin:round;stroke-width:2.5446317463925px"/><line x1="46.82" y1="32.01" x2="68.78" y2="32.01" style="fill:#fff;stroke:#4f5ca6;stroke-linecap:round;stroke-linejoin:round;stroke-width:2.5446317463925px"/><line x1="9.5" y1="41.88" x2="31.46" y2="41.88" style="fill:#fff;stroke:#4f5ca6;stroke-linecap:round;stroke-linejoin:round;stroke-width:2.5446317463925px"/><line x1="39.69" y1="1.25" x2="39.69" y2="59.36" style="fill:#fff;stroke:#4f5ca6;stroke-linejoin:round;stroke-width:2.6747607575771px"/></svg>