<svg id="ae933f33-c934-4036-93b8-26209955b8e8" data-name="Camada 1" xmlns="http://www.w3.org/2000/svg" viewBox="0 0 74.81 65.37"><polyline points="29.32 64.22 37.21 64.22 45.45 64.22" style="fill:none;stroke:#fff;stroke-linecap:round;stroke-linejoin:round;stroke-width:2.29356096441554px"/><line x1="37.39" y1="50.18" x2="37.39" y2="64.22" style="fill:none;stroke:#fff;stroke-linecap:round;stroke-linejoin:round;stroke-width:2.29356096441554px"/><path d="M313.84,422.07a15.93,15.93,0,0,1-31.85,0" transform="translate(-260.6 -387.82)" style="fill:none;stroke:#fff;stroke-linecap:round;stroke-linejoin:round;stroke-width:2.29356096441554px"/><path d="M318,394a17.8,17.8,0,0,1,0,21.44" transform="translate(-260.6 -387.82)" style="fill:none;stroke:#fff;stroke-linecap:round;stroke-linejoin:round;stroke-width:2.29356096441554px"/><path d="M329.62,389a29,29,0,0,1,.13,31.29" transform="translate(-260.6 -387.82)" style="fill:none;stroke:#fff;stroke-linecap:round;stroke-linejoin:round;stroke-width:2.29356096441554px"/><rect x="27.5" y="3.89" width="20.02" height="41.35" rx="7.87" style="fill:#fff;stroke:#fff;stroke-miterlimit:10;stroke-width:2.5446317463925px"/><path d="M278.17,415.44a17.84,17.84,0,0,1,0-21.44" transform="translate(-260.6 -387.82)" style="fill:none;stroke:#fff;stroke-linecap:round;stroke-linejoin:round;stroke-width:2.29356096441554px"/><path d="M266.38,420.25a29,29,0,0,1-.13-31.29" transform="translate(-260.6 -387.82)" style="fill:none;stroke:#fff;stroke-linecap:round;stroke-linejoin:round;stroke-width:2.29356096441554px"/><line x1="29.18" y1="17.97" x2="34.75" y2="17.97" style="fill:#fff;stroke:#4f5ca6;stroke-linecap:round;stroke-linejoin:round;stroke-width:2.5446317463925px"/><line x1="29.57" y1="30.2" x2="34.75" y2="30.2" style="fill:#fff;stroke:#4f5ca6;stroke-linecap:round;stroke-linejoin:round;stroke-width:2.5446317463925px"/><line x1="29.18" y1="24.08" x2="34.75" y2="24.08" style="fill:#fff;stroke:#4f5ca6;stroke-linecap:round;stroke-linejoin:round;stroke-width:2.5446317463925px"/></svg>